<svg width="1480" height="592" viewBox="0 0 1480 592" fill="none" xmlns="http://www.w3.org/2000/svg">
<path fill-rule="evenodd" clip-rule="evenodd" d="M157.297 0.807617L65.9845 250.065L129.131 250.065L71.8634 400.089H233.839L324.363 171.146H254.239L313.904 0.807749L157.297 0.807617ZM212.061 459.61H51.5907L0.448476 591.66H160.397L212.061 459.61Z" fill="currentColor"/>
<path d="M1170.46 508.305V86.8005H1253.12V242.371C1266.9 230.406 1282.85 220.98 1300.98 214.091C1319.47 207.203 1339.23 203.759 1360.26 203.759C1378.39 203.759 1394.7 206.659 1409.2 212.46C1424.07 218.261 1436.76 226.6 1447.27 237.476C1457.79 248.353 1465.76 261.586 1471.2 277.176C1477 292.403 1479.9 309.443 1479.9 328.296V508.305H1397.24V345.699C1397.24 325.033 1391.08 308.537 1378.75 296.21C1366.42 283.521 1350.29 277.176 1330.35 277.176C1320.2 277.176 1310.41 279.351 1300.98 283.702C1291.55 288.053 1283.22 293.854 1275.96 301.105C1269.08 308.356 1263.46 317.057 1259.11 327.209C1255.12 336.998 1253.12 347.33 1253.12 358.207V508.305H1170.46Z" fill="currentColor"/>
<path d="M1042.46 508.303V482.199C1030.13 492.351 1016.17 500.146 1000.58 505.584C985.357 511.023 968.68 513.742 950.552 513.742C930.249 513.742 911.215 509.754 893.45 501.777C875.685 493.439 860.095 482.381 846.68 468.604C833.628 454.464 823.295 437.968 815.682 419.115C808.068 400.262 804.261 379.959 804.261 358.206C804.261 336.815 808.068 316.874 815.682 298.384C823.295 279.531 833.628 263.216 846.68 249.439C860.095 235.3 875.685 224.242 893.45 216.265C911.215 207.927 930.249 203.757 950.552 203.757C968.68 203.757 985.357 206.476 1000.58 211.915C1016.17 217.353 1030.13 224.967 1042.46 234.756V209.196H1125.12V508.303H1042.46ZM1040.83 358.749C1040.83 347.51 1038.83 336.996 1034.85 327.207C1030.86 317.418 1025.24 308.898 1017.99 301.647C1011.1 294.033 1003.12 288.051 994.059 283.701C984.995 279.35 975.206 277.175 964.692 277.175C954.54 277.175 944.751 279.35 935.325 283.701C926.261 288.051 918.103 294.033 910.852 301.647C903.964 308.898 898.525 317.418 894.537 327.207C890.549 336.996 888.555 347.51 888.555 358.749C888.555 369.989 890.549 380.684 894.537 390.836C898.525 400.987 903.964 409.87 910.852 417.483C917.741 424.734 925.717 430.535 934.781 434.886C944.207 439.237 954.178 441.412 964.692 441.412C975.206 441.412 984.995 439.237 994.059 434.886C1003.49 430.535 1011.64 424.734 1018.53 417.483C1025.42 409.87 1030.86 400.987 1034.85 390.836C1038.83 380.684 1040.83 369.989 1040.83 358.749Z" fill="currentColor"/>
<path fill-rule="evenodd" clip-rule="evenodd" d="M458.052 183.405V508.305H540.714V485.464C553.041 494.528 566.637 501.598 581.501 506.673C596.366 511.387 612.5 513.743 629.903 513.743C650.568 513.743 669.965 509.755 688.093 501.779C706.22 493.44 721.991 482.382 735.406 468.605C748.82 454.465 759.334 437.969 766.948 419.116C774.924 400.264 778.912 379.96 778.912 358.207C778.912 336.816 774.924 316.876 766.948 298.386C759.334 279.533 748.82 263.218 735.406 249.441C721.991 235.301 706.22 224.243 688.093 216.267C669.965 207.928 650.568 203.759 629.903 203.759C612.5 203.759 596.366 206.116 581.501 210.829C566.637 215.542 553.041 222.431 540.714 231.494V86.1667L440.352 86.1699L406.167 183.405H458.052ZM688.636 327.209C692.624 336.998 694.619 347.331 694.619 358.207C694.619 369.446 692.624 380.142 688.636 390.293C684.648 400.082 679.21 408.784 672.321 416.397C665.433 423.648 657.275 429.449 647.849 433.8C638.785 438.151 628.996 440.326 618.482 440.326C607.968 440.326 597.998 438.151 588.571 433.8C579.507 429.449 571.531 423.648 564.643 416.397C557.754 408.784 552.316 400.082 548.328 390.293C544.34 380.142 542.346 369.446 542.346 358.207C542.346 347.331 544.34 336.998 548.328 327.209C552.316 317.057 557.754 308.356 564.643 301.105C571.894 293.854 580.051 288.053 589.115 283.702C598.542 279.352 608.331 277.176 618.482 277.176C628.996 277.176 638.785 279.352 647.849 283.702C656.913 288.053 664.889 293.854 671.778 301.105C679.029 308.356 684.648 317.057 688.636 327.209Z" fill="currentColor"/>
</svg>
